<svg width="100" height="141" viewBox="0 0 100 141" fill="none" xmlns="http://www.w3.org/2000/svg">
<path d="M97.6666 138.667V90.15C97.6653 83.8673 96.4263 77.6464 94.0203 71.8427C91.6144 66.0389 88.0887 60.766 83.6446 56.325L70.3196 43V88.0112C70.3196 94.0928 62.9601 97.1473 58.6551 92.8423L49.806 84C46.3893 80.5833 38.1825 78.5333 32.709 84C27.2423 89.4667 29.2923 97.6667 32.709 101.083L70.3196 138.667" stroke="url(#paint0_linear_160_16)" stroke-width="4" stroke-linecap="round" stroke-linejoin="round"/>
<path d="M43 2H56.6667C60.2913 2 63.7675 3.43988 66.3305 6.00287C68.8935 8.56587 70.3333 12.042 70.3333 15.6667V29.3333M43 2C43 11.1088 48.4667 29.3333 70.3333 29.3333M43 2H29.3333M70.3333 29.3333V70.3333M2 70.3333V29.3333M29.3333 2H15.6667C12.042 2 8.56587 3.43988 6.00287 6.00287C3.43988 8.56587 2 12.042 2 15.6667V29.3333M29.3333 2C29.3333 11.1088 23.8667 29.3333 2 29.3333M2 70.3333V84C2 87.6246 3.43988 91.1008 6.00287 93.6638C8.56587 96.2268 12.042 97.6667 15.6667 97.6667H29.3333C29.3333 88.5578 23.8667 70.3333 2 70.3333Z" stroke="url(#paint1_linear_160_16)" stroke-width="4" stroke-linecap="round" stroke-linejoin="round"/>
<path d="M61.0206 52.6C61.0206 45.92 55.3006 44.68 45.9006 44.2V41.6C48.2606 41.8 49.4206 42.24 49.4206 43.28H59.8206C59.8206 36.84 54.8606 34.04 45.9006 33.56V29.88H41.1006V33.52C31.1006 33.76 25.6606 36.44 25.6606 42.28C25.6606 48.44 29.9806 50.64 41.1006 51.2V54.24C36.6206 54 35.6606 53.16 35.6606 52H25.2606C25.2606 59.8 30.9006 62 41.1006 62.24V65.88H45.9006V62.24C55.6606 61.92 61.0206 59.68 61.0206 52.6ZM36.0606 42.8C36.0606 41.8 36.9406 41.52 41.1006 41.48V44C36.8206 43.84 36.0606 43.76 36.0606 42.8ZM45.9006 54.24V51.36C49.9806 51.56 50.6206 51.84 50.6206 52.84C50.6206 53.72 49.9406 54.16 45.9006 54.24Z" fill="url(#paint2_linear_160_16)"/>
<defs>
<linearGradient id="paint0_linear_160_16" x1="29.3345" y1="90.4444" x2="97.6666" y2="90.4444" gradientUnits="userSpaceOnUse">
<stop stop-color="#92FE9D"/>
<stop offset="1" stop-color="#00C9FF"/>
</linearGradient>
<linearGradient id="paint1_linear_160_16" x1="2" y1="49.4444" x2="70.3333" y2="49.4444" gradientUnits="userSpaceOnUse">
<stop stop-color="#92FE9D"/>
<stop offset="1" stop-color="#00C9FF"/>
</linearGradient>
<linearGradient id="paint2_linear_160_16" x1="16.1333" y1="49.6849" x2="55.1333" y2="49.6849" gradientUnits="userSpaceOnUse">
<stop stop-color="#92FE9D"/>
<stop offset="1" stop-color="#00C9FF"/>
</linearGradient>
</defs>
</svg>
