<svg width="81" height="74" viewBox="0 0 81 74" fill="none" xmlns="http://www.w3.org/2000/svg">
<g filter="url(#filter0_d_20_104)">
<path d="M53.9992 33.7333C53.4913 33.0708 52.873 32.4967 52.2988 31.9225C50.8192 30.5975 49.1409 29.6479 47.7275 28.2567C44.4371 25.0325 43.7084 19.7104 45.8063 15.625C43.7084 16.1329 41.8755 17.2813 40.3075 18.54C34.588 23.1333 32.3355 31.2379 35.0296 38.1942C35.118 38.415 35.2063 38.6358 35.2063 38.9229C35.2063 39.4087 34.875 39.8504 34.4334 40.0271C33.9255 40.2479 33.3955 40.1154 32.9759 39.7621C32.8498 39.6578 32.7448 39.5304 32.6667 39.3867C30.1713 36.2288 29.7738 31.7017 31.4521 28.08C27.7642 31.0833 25.7546 36.1625 26.0417 40.9546C26.1742 42.0588 26.3067 43.1629 26.6821 44.2671C26.9913 45.5921 27.5875 46.9171 28.25 48.0875C30.635 51.9079 34.7646 54.6462 39.2034 55.1983C43.9292 55.7946 48.9863 54.9333 52.608 51.665C56.6492 47.9992 58.0625 42.125 55.9867 37.09L55.6996 36.5158C55.2359 35.5 53.9992 33.7333 53.9992 33.7333ZM47.0209 47.6458C46.4025 48.1758 45.3867 48.75 44.5917 48.9708C42.1184 49.8542 39.645 48.6175 38.1875 47.16C40.8155 46.5417 42.3834 44.5983 42.8471 42.6329C43.2225 40.8662 42.5159 39.4087 42.2288 37.7083C41.9638 36.0742 42.008 34.6829 42.6042 33.1592C43.0238 33.9983 43.4655 34.8375 43.9955 35.5C45.6959 37.7083 48.368 38.68 48.9421 41.6833C49.0305 41.9925 49.0746 42.3017 49.0746 42.6329C49.1409 44.4437 48.3459 46.4312 47.0209 47.6458Z" fill="#FF7A00"/>
</g>
<defs>
<filter id="filter0_d_20_104" x="11.0146" y="0.625" width="60.9224" height="69.7489" filterUnits="userSpaceOnUse" color-interpolation-filters="sRGB">
<feFlood flood-opacity="0" result="BackgroundImageFix"/>
<feColorMatrix in="SourceAlpha" type="matrix" values="0 0 0 0 0 0 0 0 0 0 0 0 0 0 0 0 0 0 127 0" result="hardAlpha"/>
<feOffset/>
<feGaussianBlur stdDeviation="7.5"/>
<feComposite in2="hardAlpha" operator="out"/>
<feColorMatrix type="matrix" values="0 0 0 0 1 0 0 0 0 0.478431 0 0 0 0 0 0 0 0 1 0"/>
<feBlend mode="normal" in2="BackgroundImageFix" result="effect1_dropShadow_20_104"/>
<feBlend mode="normal" in="SourceGraphic" in2="effect1_dropShadow_20_104" result="shape"/>
</filter>
</defs>
</svg>
