<svg width="617" height="98" viewBox="0 0 617 98" fill="none" xmlns="http://www.w3.org/2000/svg">
<path d="M2.05825 95.74L32.3746 1.5H614.92L583.539 95.74H2.05825Z" fill="#040D23" stroke="url(#paint0_linear_1520_9)" stroke-width="3"/>
<path d="M31.2815 0H617L584.62 97.24H0L31.2815 0Z" fill="url(#paint1_linear_1520_9)"/>
<path d="M470.071 1.16217L452 60.3052" stroke="url(#paint2_linear_1520_9)" stroke-width="3"/>
<path d="M470.071 1.16217L452 60.3052" stroke="url(#paint3_linear_1520_9)" stroke-width="3"/>
<path d="M319.071 1.16217L301 60.3052" stroke="url(#paint4_linear_1520_9)" stroke-width="3"/>
<path d="M319.071 1.16217L301 60.3052" stroke="url(#paint5_linear_1520_9)" stroke-width="3"/>
<path d="M184.071 1.16217L166 60.3052" stroke="url(#paint6_linear_1520_9)" stroke-width="3"/>
<path d="M184.071 1.16217L166 60.3052" stroke="url(#paint7_linear_1520_9)" stroke-width="3"/>
<defs>
<linearGradient id="paint0_linear_1520_9" x1="0" y1="48.2247" x2="617" y2="48.2247" gradientUnits="userSpaceOnUse">
<stop stop-color="#92FE9D"/>
<stop offset="1" stop-color="#00C9FF"/>
</linearGradient>
<linearGradient id="paint1_linear_1520_9" x1="308.5" y1="54.1008" x2="308.5" y2="-4.27666e-06" gradientUnits="userSpaceOnUse">
<stop stop-color="#040D23"/>
<stop offset="1" stop-color="#040D23" stop-opacity="0"/>
</linearGradient>
<linearGradient id="paint2_linear_1520_9" x1="457.029" y1="44.6975" x2="470.315" y2="1.20596" gradientUnits="userSpaceOnUse">
<stop stop-color="#26D4E2" stop-opacity="0"/>
<stop offset="1" stop-color="#26D2E1"/>
</linearGradient>
<linearGradient id="paint3_linear_1520_9" x1="461.005" y1="34.0763" x2="461.31" y2="1.08108" gradientUnits="userSpaceOnUse">
<stop stop-color="#040D23"/>
<stop offset="1" stop-color="#040D23" stop-opacity="0"/>
</linearGradient>
<linearGradient id="paint4_linear_1520_9" x1="306.029" y1="44.6975" x2="319.315" y2="1.20596" gradientUnits="userSpaceOnUse">
<stop stop-color="#26D4E2" stop-opacity="0"/>
<stop offset="1" stop-color="#45DDCA"/>
</linearGradient>
<linearGradient id="paint5_linear_1520_9" x1="310.005" y1="34.0763" x2="310.31" y2="1.08108" gradientUnits="userSpaceOnUse">
<stop stop-color="#040D23"/>
<stop offset="1" stop-color="#040D23" stop-opacity="0"/>
</linearGradient>
<linearGradient id="paint6_linear_1520_9" x1="171.029" y1="44.6975" x2="184.315" y2="1.20596" gradientUnits="userSpaceOnUse">
<stop stop-color="#26D4E2" stop-opacity="0"/>
<stop offset="1" stop-color="#64EAB9"/>
</linearGradient>
<linearGradient id="paint7_linear_1520_9" x1="175.004" y1="34.0763" x2="175.31" y2="1.08108" gradientUnits="userSpaceOnUse">
<stop stop-color="#040D23"/>
<stop offset="1" stop-color="#040D23" stop-opacity="0"/>
</linearGradient>
</defs>
</svg>
