<svg width="81" height="74" viewBox="0 0 81 74" fill="none" xmlns="http://www.w3.org/2000/svg">
<g filter="url(#filter0_f_1523_19)">
<path d="M37.3512 39.6349L39.0423 38.6577L36.8492 36.813L37.3512 39.6349Z" fill="#1D92FF"/>
</g>
<g filter="url(#filter1_f_1523_19)">
<path d="M58.244 36.9648C58.244 36.5489 58.0396 36.1832 57.7285 35.9538L57.735 35.9426L53.3528 33.4125L55.8752 29.0434L55.8668 29.0383C55.9465 28.8582 55.9826 28.6619 55.9722 28.4652C55.9618 28.2686 55.9053 28.0772 55.8071 27.9065C55.7082 27.736 55.5705 27.5912 55.4051 27.4839C55.2397 27.3766 55.0514 27.3098 54.8554 27.2889V27.2767H49.7944V22.2303H49.784C49.763 22.0345 49.6961 21.8465 49.5888 21.6814C49.4815 21.5162 49.3368 21.3787 49.1665 21.28C48.9955 21.1815 48.8037 21.1248 48.6067 21.1146C48.4097 21.1044 48.213 21.1409 48.0328 21.2212L48.0267 21.2104L43.5707 23.7832L41.1031 19.509L41.0942 19.5142C40.9781 19.3552 40.8261 19.2258 40.6506 19.1365C40.4751 19.0471 40.2811 19.0004 40.0842 19C39.6682 19 39.3021 19.2044 39.0732 19.5156L39.0619 19.509L36.5535 23.8537L32.2342 21.3599L32.2291 21.3688C32.049 21.2891 31.8527 21.253 31.6561 21.2634C31.4594 21.2737 31.268 21.3303 31.0973 21.4285C30.9267 21.5273 30.7818 21.665 30.6744 21.8304C30.567 21.9958 30.5001 22.1842 30.4793 22.3802H30.4666V27.397H25.4789V27.4069C25.2832 27.428 25.0951 27.4948 24.93 27.6021C24.7649 27.7094 24.6274 27.8541 24.5286 28.0245C24.4304 28.1953 24.3738 28.3869 24.3635 28.5837C24.3533 28.7805 24.3895 28.977 24.4694 29.1572L24.4586 29.1637L26.9242 33.4346L22.509 35.9839L22.5142 35.9928C22.3552 36.109 22.2258 36.261 22.1365 36.4365C22.0471 36.6119 22.0004 36.806 22 37.0029C22 37.4188 22.2045 37.785 22.5156 38.0139L22.509 38.0251L26.8913 40.5551L24.3688 44.9243L24.3773 44.929C24.2976 45.109 24.2615 45.3053 24.2718 45.502C24.2822 45.6986 24.3388 45.89 24.437 46.0607C24.5359 46.2313 24.6736 46.376 24.839 46.4834C25.0043 46.5907 25.1927 46.6574 25.3887 46.6783V46.691H30.4492V51.7369H30.4595C30.5028 52.1204 30.7176 52.4795 31.0771 52.6873C31.2481 52.7856 31.4399 52.8422 31.6369 52.8524C31.8339 52.8626 32.0305 52.8262 32.2107 52.746L32.2169 52.7568L36.6729 50.184L39.1404 54.4582L39.1494 54.453C39.2655 54.612 39.4175 54.7414 39.593 54.8307C39.7684 54.9201 39.9625 54.9668 40.1594 54.9672C40.5753 54.9672 40.9415 54.7628 41.1704 54.4521L41.1812 54.4582L43.6896 50.1135L48.0093 52.6073L48.0145 52.5984C48.1946 52.6781 48.3909 52.7142 48.5875 52.7038C48.7841 52.6935 48.9756 52.6369 49.1463 52.5387C49.3169 52.44 49.4619 52.3023 49.5693 52.1369C49.6767 51.9715 49.7435 51.7831 49.7643 51.587H49.777V46.5707H54.7651V46.5608C54.9609 46.5397 55.149 46.4728 55.3141 46.3656C55.4792 46.2583 55.6167 46.1136 55.7155 45.9432C55.8137 45.7724 55.8702 45.5808 55.8805 45.384C55.8908 45.1871 55.8545 44.9907 55.7747 44.8105L55.7855 44.8044L53.3199 40.5335L57.735 37.9842L57.7299 37.9753C57.8889 37.859 58.0183 37.707 58.1076 37.5314C58.1969 37.3559 58.2437 37.1618 58.244 36.9648ZM34.2642 44.1262C33.2161 44.7316 32.2657 44.8143 31.4578 44.5971L31.5711 43.3295C32.183 43.5067 32.974 43.5058 33.7213 43.0739C34.3638 42.703 34.5006 42.2443 34.3178 41.928C33.773 40.9852 31.0315 43.4461 29.8532 41.4058C29.3325 40.5034 29.6807 39.3045 30.9577 38.5675C31.8192 38.0698 32.685 37.9175 33.5079 38.1031L33.3627 39.336C32.6892 39.1837 31.996 39.3341 31.4432 39.6527C30.9554 39.9347 30.8007 40.3056 30.9887 40.6313C31.4818 41.4848 34.2623 39.1104 35.4307 41.1337C36.0037 42.1249 35.7202 43.2863 34.2642 44.1262ZM40.8174 40.213L39.946 39.4915L37.6209 40.8339L37.8094 41.9496L36.5004 42.7049L35.4594 36.0765L36.9065 35.2413L42.1263 39.4577L40.8174 40.213ZM42.5813 39.195L39.4506 33.7721L40.6134 33.1005L43.1575 37.5067L45.4502 36.1832L46.0372 37.1998L42.5813 39.195ZM46.8169 36.7495L43.6863 31.3272L47.5233 29.1111L48.1099 30.1272L45.4276 31.6764L46.0847 32.8147L48.7101 31.2985L49.2967 32.3146L46.6712 33.8304L47.3847 35.0665L50.0675 33.5174L50.6545 34.5335L46.8169 36.7495Z" fill="#1D92FF"/>
</g>
<path d="M37.3512 39.6349L39.0423 38.6577L36.8492 36.813L37.3512 39.6349Z" fill="#FD5F68"/>
<path d="M58.244 36.9648C58.244 36.5489 58.0396 36.1832 57.7285 35.9538L57.735 35.9426L53.3528 33.4125L55.8752 29.0434L55.8668 29.0383C55.9465 28.8582 55.9826 28.6619 55.9722 28.4652C55.9618 28.2686 55.9053 28.0772 55.8071 27.9065C55.7082 27.736 55.5705 27.5912 55.4051 27.4839C55.2397 27.3766 55.0514 27.3098 54.8554 27.2889V27.2767H49.7944V22.2303H49.784C49.763 22.0345 49.6961 21.8465 49.5888 21.6814C49.4815 21.5162 49.3368 21.3787 49.1665 21.28C48.9955 21.1815 48.8037 21.1248 48.6067 21.1146C48.4097 21.1044 48.213 21.1409 48.0328 21.2212L48.0267 21.2104L43.5707 23.7832L41.1031 19.509L41.0942 19.5142C40.9781 19.3552 40.8261 19.2258 40.6506 19.1365C40.4751 19.0471 40.2811 19.0004 40.0842 19C39.6682 19 39.3021 19.2044 39.0732 19.5156L39.0619 19.509L36.5535 23.8537L32.2342 21.3599L32.2291 21.3688C32.049 21.2891 31.8527 21.253 31.6561 21.2634C31.4594 21.2737 31.268 21.3303 31.0973 21.4285C30.9267 21.5273 30.7818 21.665 30.6744 21.8304C30.567 21.9958 30.5001 22.1842 30.4793 22.3802H30.4666V27.397H25.4789V27.4069C25.2832 27.428 25.0951 27.4948 24.93 27.6021C24.7649 27.7094 24.6274 27.8541 24.5286 28.0245C24.4304 28.1953 24.3738 28.3869 24.3635 28.5837C24.3533 28.7805 24.3895 28.977 24.4694 29.1572L24.4586 29.1637L26.9242 33.4346L22.509 35.9839L22.5142 35.9928C22.3552 36.109 22.2258 36.261 22.1365 36.4365C22.0471 36.6119 22.0004 36.806 22 37.0029C22 37.4188 22.2045 37.785 22.5156 38.0139L22.509 38.0251L26.8913 40.5551L24.3688 44.9243L24.3773 44.929C24.2976 45.109 24.2615 45.3053 24.2718 45.502C24.2822 45.6986 24.3388 45.89 24.437 46.0607C24.5359 46.2313 24.6736 46.376 24.839 46.4834C25.0043 46.5907 25.1927 46.6574 25.3887 46.6783V46.691H30.4492V51.7369H30.4595C30.5028 52.1204 30.7176 52.4795 31.0771 52.6873C31.2481 52.7856 31.4399 52.8422 31.6369 52.8524C31.8339 52.8626 32.0305 52.8262 32.2107 52.746L32.2169 52.7568L36.6729 50.184L39.1404 54.4582L39.1494 54.453C39.2655 54.612 39.4175 54.7414 39.593 54.8307C39.7684 54.9201 39.9625 54.9668 40.1594 54.9672C40.5753 54.9672 40.9415 54.7628 41.1704 54.4521L41.1812 54.4582L43.6896 50.1135L48.0093 52.6073L48.0145 52.5984C48.1946 52.6781 48.3909 52.7142 48.5875 52.7038C48.7841 52.6935 48.9756 52.6369 49.1463 52.5387C49.3169 52.44 49.4619 52.3023 49.5693 52.1369C49.6767 51.9715 49.7435 51.7831 49.7643 51.587H49.777V46.5707H54.7651V46.5608C54.9609 46.5397 55.149 46.4728 55.3141 46.3656C55.4792 46.2583 55.6167 46.1136 55.7155 45.9432C55.8137 45.7724 55.8702 45.5808 55.8805 45.384C55.8908 45.1871 55.8545 44.9907 55.7747 44.8105L55.7855 44.8044L53.3199 40.5335L57.735 37.9842L57.7299 37.9753C57.8889 37.859 58.0183 37.707 58.1076 37.5314C58.1969 37.3559 58.2437 37.1618 58.244 36.9648ZM34.2642 44.1262C33.2161 44.7316 32.2657 44.8143 31.4578 44.5971L31.5711 43.3295C32.183 43.5067 32.974 43.5058 33.7213 43.0739C34.3638 42.703 34.5006 42.2443 34.3178 41.928C33.773 40.9852 31.0315 43.4461 29.8532 41.4058C29.3325 40.5034 29.6807 39.3045 30.9577 38.5675C31.8192 38.0698 32.685 37.9175 33.5079 38.1031L33.3627 39.336C32.6892 39.1837 31.996 39.3341 31.4432 39.6527C30.9554 39.9347 30.8007 40.3056 30.9887 40.6313C31.4818 41.4848 34.2623 39.1104 35.4307 41.1337C36.0037 42.1249 35.7202 43.2863 34.2642 44.1262ZM40.8174 40.213L39.946 39.4915L37.6209 40.8339L37.8094 41.9496L36.5004 42.7049L35.4594 36.0765L36.9065 35.2413L42.1263 39.4577L40.8174 40.213ZM42.5813 39.195L39.4506 33.7721L40.6134 33.1005L43.1575 37.5067L45.4502 36.1832L46.0372 37.1998L42.5813 39.195ZM46.8169 36.7495L43.6863 31.3272L47.5233 29.1111L48.1099 30.1272L45.4276 31.6764L46.0847 32.8147L48.7101 31.2985L49.2967 32.3146L46.6712 33.8304L47.3847 35.0665L50.0675 33.5174L50.6545 34.5335L46.8169 36.7495Z" fill="#FD5F68"/>
<defs>
<filter id="filter0_f_1523_19" x="32.8492" y="32.813" width="10.193" height="10.8219" filterUnits="userSpaceOnUse" color-interpolation-filters="sRGB">
<feFlood flood-opacity="0" result="BackgroundImageFix"/>
<feBlend mode="normal" in="SourceGraphic" in2="BackgroundImageFix" result="shape"/>
<feGaussianBlur stdDeviation="2" result="effect1_foregroundBlur_1523_19"/>
</filter>
<filter id="filter1_f_1523_19" x="18" y="15" width="44.244" height="43.9672" filterUnits="userSpaceOnUse" color-interpolation-filters="sRGB">
<feFlood flood-opacity="0" result="BackgroundImageFix"/>
<feBlend mode="normal" in="SourceGraphic" in2="BackgroundImageFix" result="shape"/>
<feGaussianBlur stdDeviation="2" result="effect1_foregroundBlur_1523_19"/>
</filter>
</defs>
</svg>
