<svg width="35" height="35" viewBox="0 0 35 35" fill="none" xmlns="http://www.w3.org/2000/svg">
<path d="M6.67172 6.67187C7.08194 6.26178 7.63824 6.0314 8.21828 6.0314C8.79833 6.0314 9.35463 6.26178 9.76485 6.67187L17.4998 14.4069L25.2348 6.67187C25.6474 6.2734 26.2 6.05291 26.7735 6.0579C27.3471 6.06288 27.8957 6.29294 28.3013 6.69852C28.7069 7.1041 28.937 7.65275 28.9419 8.22631C28.9469 8.79986 28.7264 9.35243 28.328 9.765L20.593 17.5L28.328 25.235C28.7264 25.6476 28.9469 26.2001 28.9419 26.7737C28.937 27.3472 28.7069 27.8959 28.3013 28.3015C27.8957 28.7071 27.3471 28.9371 26.7735 28.9421C26.2 28.9471 25.6474 28.7266 25.2348 28.3281L17.4998 20.5931L9.76485 28.3281C9.35228 28.7266 8.79971 28.9471 8.22616 28.9421C7.6526 28.9371 7.10395 28.7071 6.69837 28.3015C6.29279 27.8959 6.06273 27.3472 6.05775 26.7737C6.05276 26.2001 6.27325 25.6476 6.67172 25.235L14.4067 17.5L6.67172 9.765C6.26163 9.35478 6.03125 8.79848 6.03125 8.21844C6.03125 7.63839 6.26163 7.08209 6.67172 6.67187Z" fill="#0ECEF6"/>
</svg>
