<svg width="25" height="24" viewBox="0 0 25 24" fill="none" xmlns="http://www.w3.org/2000/svg">
<path d="M1.05402 0.862505C1.48768 0.440695 2.07577 0.203735 2.68896 0.203735C3.30215 0.203735 3.89024 0.440695 4.3239 0.862505L12.5009 8.8185L20.6779 0.862505C21.114 0.452649 21.6982 0.225862 22.3045 0.230988C22.9108 0.236115 23.4908 0.472745 23.9196 0.889913C24.3484 1.30708 24.5916 1.87141 24.5968 2.46135C24.6021 3.0513 24.369 3.61965 23.9478 4.04401L15.7708 12L23.9478 19.956C24.369 20.3804 24.6021 20.9487 24.5968 21.5387C24.5916 22.1286 24.3484 22.6929 23.9196 23.1101C23.4908 23.5273 22.9108 23.7639 22.3045 23.769C21.6982 23.7741 21.114 23.5474 20.6779 23.1375L12.5009 15.1815L4.3239 23.1375C3.88775 23.5474 3.30361 23.7741 2.69728 23.769C2.09095 23.7639 1.51095 23.5273 1.08219 23.1101C0.653435 22.6929 0.410232 22.1286 0.404963 21.5387C0.399694 20.9487 0.632781 20.3804 1.05402 19.956L9.23102 12L1.05402 4.04401C0.620495 3.62207 0.376953 3.04987 0.376953 2.45325C0.376953 1.85664 0.620495 1.28444 1.05402 0.862505Z" fill="#0ECEF6"/>
</svg>
