<svg width="96" height="96" viewBox="0 0 96 96" fill="none" xmlns="http://www.w3.org/2000/svg">
<path d="M58.4996 66.2156H51.5527V43.5C51.5527 43.0875 51.2152 42.75 50.8027 42.75H45.1777C44.7652 42.75 44.4277 43.0875 44.4277 43.5V66.2156H37.4996C36.8714 66.2156 36.5246 66.9375 36.9089 67.425L47.4089 80.7094C47.4791 80.799 47.5687 80.8715 47.6711 80.9214C47.7734 80.9712 47.8857 80.9971 47.9996 80.9971C48.1134 80.9971 48.2257 80.9712 48.3281 80.9214C48.4304 80.8715 48.52 80.799 48.5902 80.7094L59.0902 67.425C59.4746 66.9375 59.1277 66.2156 58.4996 66.2156Z" fill="url(#paint0_linear_143_202)"/>
<path d="M76.0688 34.3781C71.775 23.0531 60.8344 15 48.0188 15C35.2031 15 24.2625 23.0438 19.9688 34.3688C11.9344 36.4781 6 43.8 6 52.5C6 62.8594 14.3906 71.25 24.7406 71.25H28.5C28.9125 71.25 29.25 70.9125 29.25 70.5V64.875C29.25 64.4625 28.9125 64.125 28.5 64.125H24.7406C21.5812 64.125 18.6094 62.8687 16.3969 60.5906C14.1937 58.3219 13.0219 55.2656 13.125 52.0969C13.2094 49.6219 14.0531 47.2969 15.5812 45.3375C17.1469 43.3406 19.3406 41.8875 21.7781 41.2406L25.3313 40.3125L26.6344 36.8812C27.4406 34.7437 28.5656 32.7469 29.9812 30.9375C31.3788 29.1441 33.0343 27.5677 34.8938 26.2594C38.7469 23.55 43.2844 22.1156 48.0188 22.1156C52.7531 22.1156 57.2906 23.55 61.1438 26.2594C63.0094 27.5719 64.6594 29.1469 66.0562 30.9375C67.4719 32.7469 68.5969 34.7531 69.4031 36.8812L70.6969 40.3031L74.2406 41.2406C79.3219 42.6094 82.875 47.2313 82.875 52.5C82.875 55.6031 81.6656 58.5281 79.4719 60.7219C78.396 61.804 77.1162 62.662 75.7065 63.2461C74.2969 63.8303 72.7853 64.129 71.2594 64.125H67.5C67.0875 64.125 66.75 64.4625 66.75 64.875V70.5C66.75 70.9125 67.0875 71.25 67.5 71.25H71.2594C81.6094 71.25 90 62.8594 90 52.5C90 43.8094 84.0844 36.4969 76.0688 34.3781Z" fill="url(#paint1_linear_143_202)"/>
<defs>
<linearGradient id="paint0_linear_143_202" x1="36.748" y1="61.7181" x2="59.2511" y2="61.7181" gradientUnits="userSpaceOnUse">
<stop stop-color="#92FE9D"/>
<stop offset="1" stop-color="#00C9FF"/>
</linearGradient>
<linearGradient id="paint1_linear_143_202" x1="6" y1="42.8963" x2="90" y2="42.8963" gradientUnits="userSpaceOnUse">
<stop stop-color="#92FE9D"/>
<stop offset="1" stop-color="#00C9FF"/>
</linearGradient>
</defs>
</svg>
