<svg width="30" height="31" viewBox="0 0 30 31" fill="none" xmlns="http://www.w3.org/2000/svg">
    <path d="M18.2817 21.1924H16.1108V14.0937C16.1108 13.9648 16.0054 13.8594 15.8765 13.8594H14.1186C13.9897 13.8594 13.8843 13.9648 13.8843 14.0937V21.1924H11.7192C11.5229 21.1924 11.4145 21.418 11.5347 21.5703L14.8159 25.7217C14.8378 25.7497 14.8658 25.7723 14.8978 25.7879C14.9298 25.8035 14.9649 25.8116 15.0005 25.8116C15.036 25.8116 15.0712 25.8035 15.1031 25.7879C15.1351 25.7723 15.1631 25.7497 15.185 25.7217L18.4663 21.5703C18.5864 21.418 18.478 21.1924 18.2817 21.1924Z" fill="url(#logo-gradient)"/>
    <path d="M23.7715 11.2432C22.4297 7.7041 19.0107 5.1875 15.0059 5.1875C11.001 5.1875 7.58203 7.70117 6.24023 11.2402C3.72949 11.8994 1.875 14.1875 1.875 16.9062C1.875 20.1436 4.49707 22.7656 7.73145 22.7656H8.90625C9.03516 22.7656 9.14062 22.6602 9.14062 22.5312V20.7734C9.14062 20.6445 9.03516 20.5391 8.90625 20.5391H7.73145C6.74414 20.5391 5.81543 20.1465 5.12402 19.4346C4.43555 18.7256 4.06934 17.7705 4.10156 16.7803C4.12793 16.0068 4.3916 15.2803 4.86914 14.668C5.3584 14.0439 6.04395 13.5898 6.80566 13.3877L7.91602 13.0977L8.32324 12.0254C8.5752 11.3574 8.92676 10.7334 9.36914 10.168C9.80587 9.60754 10.3232 9.11489 10.9043 8.70605C12.1084 7.85938 13.5264 7.41113 15.0059 7.41113C16.4854 7.41113 17.9033 7.85938 19.1074 8.70605C19.6904 9.11621 20.2061 9.6084 20.6426 10.168C21.085 10.7334 21.4365 11.3604 21.6885 12.0254L22.0928 13.0947L23.2002 13.3877C24.7881 13.8154 25.8984 15.2598 25.8984 16.9062C25.8984 17.876 25.5205 18.79 24.835 19.4756C24.4988 19.8138 24.0988 20.0819 23.6583 20.2644C23.2178 20.447 22.7454 20.5403 22.2686 20.5391H21.0938C20.9648 20.5391 20.8594 20.6445 20.8594 20.7734V22.5312C20.8594 22.6602 20.9648 22.7656 21.0938 22.7656H22.2686C25.5029 22.7656 28.125 20.1436 28.125 16.9062C28.125 14.1904 26.2764 11.9053 23.7715 11.2432Z" fill="url(#logo-gradient)"/>
    <defs>
         <linearGradient id="logo-gradient" x1="0%" y1="50%" x2="100%" y2="50%" >             
            <stop offset="0%" stop-color="#92FE9D">
                <animate attributeName="stop-color" values="#92FE9D; #00C9FF; #92FE9D" dur="2s" repeatCount="indefinite"></animate>
            </stop>
            <stop offset="100%" stop-color="#00C9FF">
                <animate attributeName="stop-color" values="#00C9FF; #92FE9D; #00C9FF" dur="2s" repeatCount="indefinite"></animate>
            </stop>
        </linearGradient> 
    </defs>
</svg>
