<svg width="14" height="22" viewBox="0 0 14 22" fill="none" xmlns="http://www.w3.org/2000/svg">
<path d="M6.09961 18.05C4.74961 18.0167 2.96628 17.8667 0.749609 17.6V14.725C1.96628 14.9417 2.87461 15.0833 3.47461 15.15C4.37461 15.3 5.24961 15.375 6.09961 15.375V11.225H5.62461C2.15794 11.225 0.424609 9.80832 0.424609 6.97499V6.12499C0.424609 4.84165 0.874609 3.87499 1.77461 3.22499C2.67461 2.55832 4.11628 2.16665 6.09961 2.04999V0.249987H8.44961V1.99999C10.2496 2.08332 11.8079 2.19165 13.1246 2.32499V4.99999C10.9579 4.73332 9.39961 4.59165 8.44961 4.57499V8.27499H8.77461C10.6079 8.27499 11.9246 8.61665 12.7246 9.29999C13.5246 9.98332 13.9246 11.025 13.9246 12.425V13.175C13.9246 14.675 13.4579 15.8083 12.5246 16.575C11.5913 17.325 10.2329 17.7833 8.44961 17.95V21.3H6.09961V18.05ZM6.09961 4.59999C5.36628 4.64999 4.85794 4.75832 4.57461 4.92499C4.30794 5.09165 4.17461 5.37499 4.17461 5.77499V7.17499C4.17461 7.87499 4.81628 8.24165 6.09961 8.27499V4.59999ZM8.44961 15.25C9.58294 15.0667 10.1496 14.6417 10.1496 13.975V12.575C10.1496 12.1583 10.0246 11.8417 9.77461 11.625C9.54128 11.4083 9.09961 11.275 8.44961 11.225V15.25Z" fill="white"/>
</svg>
