<svg id="svg1" width="81" height="74" viewBox="0 0 81 74" fill="none" xmlns="http://www.w3.org/2000/svg">
<g filter="url(#filter0_f_1523_2)">
<path d="M53.9946 33.7383C53.4867 33.0758 52.8683 32.5017 52.2942 31.9275C50.8146 30.6025 49.1362 29.6529 47.7229 28.2617C44.4325 25.0375 43.7037 19.7154 45.8017 15.63C43.7037 16.1379 41.8708 17.2863 40.3029 18.545C34.5833 23.1383 32.3308 31.2429 35.025 38.1992C35.1133 38.42 35.2017 38.6408 35.2017 38.9279C35.2017 39.4138 34.8704 39.8554 34.4287 40.0321C33.9208 40.2529 33.3908 40.1204 32.9712 39.7671C32.8452 39.6628 32.7402 39.5354 32.6621 39.3917C30.1667 36.2338 29.7692 31.7067 31.4475 28.085C27.7596 31.0883 25.75 36.1675 26.0371 40.9596C26.1696 42.0638 26.3021 43.1679 26.6775 44.2721C26.9867 45.5971 27.5829 46.9221 28.2454 48.0925C30.6304 51.9129 34.76 54.6513 39.1987 55.2033C43.9246 55.7996 48.9817 54.9383 52.6033 51.67C56.6446 48.0042 58.0579 42.13 55.9821 37.095L55.695 36.5208C55.2312 35.505 53.9946 33.7383 53.9946 33.7383ZM47.0162 47.6508C46.3979 48.1808 45.3821 48.755 44.5871 48.9758C42.1137 49.8592 39.6404 48.6225 38.1829 47.165C40.8108 46.5467 42.3787 44.6033 42.8425 42.6379C43.2179 40.8713 42.5112 39.4138 42.2242 37.7133C41.9592 36.0792 42.0033 34.6879 42.5996 33.1642C43.0192 34.0033 43.4608 34.8425 43.9908 35.505C45.6912 37.7133 48.3633 38.685 48.9375 41.6883C49.0258 41.9975 49.07 42.3067 49.07 42.6379C49.1362 44.4488 48.3412 46.4363 47.0162 47.6508Z" fill="#FF7A00"/>
</g>
<g fill="url(#linear-gradient)">
<path d="M53.9992 33.7333C53.4913 33.0708 52.873 32.4967 52.2988 31.9225C50.8192 30.5975 49.1409 29.6479 47.7275 28.2567C44.4371 25.0325 43.7084 19.7104 45.8063 15.625C43.7084 16.1329 41.8755 17.2813 40.3075 18.54C34.588 23.1333 32.3355 31.2379 35.0296 38.1942C35.118 38.415 35.2063 38.6358 35.2063 38.9229C35.2063 39.4088 34.875 39.8504 34.4334 40.0271C33.9255 40.2479 33.3955 40.1154 32.9759 39.7621C32.8498 39.6578 32.7448 39.5304 32.6667 39.3867C30.1713 36.2288 29.7738 31.7017 31.4521 28.08C27.7642 31.0833 25.7546 36.1625 26.0417 40.9546C26.1742 42.0588 26.3067 43.1629 26.6821 44.2671C26.9913 45.5921 27.5875 46.9171 28.25 48.0875C30.635 51.9079 34.7646 54.6463 39.2034 55.1983C43.9292 55.7946 48.9863 54.9333 52.608 51.665C56.6492 47.9992 58.0625 42.125 55.9867 37.09L55.6996 36.5158C55.2359 35.5 53.9992 33.7333 53.9992 33.7333ZM47.0209 47.6458C46.4025 48.1758 45.3867 48.75 44.5917 48.9708C42.1184 49.8542 39.6451 48.6175 38.1875 47.16C40.8155 46.5417 42.3834 44.5983 42.8471 42.6329C43.2225 40.8663 42.5159 39.4088 42.2288 37.7083C41.9638 36.0742 42.008 34.6829 42.6042 33.1592C43.0238 33.9983 43.4655 34.8375 43.9955 35.5C45.6959 37.7083 48.368 38.68 48.9421 41.6833C49.0305 41.9925 49.0746 42.3017 49.0746 42.6329C49.1409 44.4438 48.3459 46.4313 47.0209 47.6458Z" fill="#FF7A00"/>
</g>
<defs>
    <linearGradient id="linear-gradient">
      <stop offset="0%" stop-color="#FE20A4" />
      <stop offset="33%" stop-color="#FE20A4" />
      <stop offset="50%" stop-color="white" />
      <stop offset="67%" stop-color="#FE20A4" />
      <stop offset="100%" stop-color="#FE20A4" />
      <animateTransform attributeName="gradientTransform"
        type="translate"
        from="-1 0"
        to="1 0"
        begin="svg1.mouseover"
        dur="0.8s"
        repeatCount="1"
        fill="freeze"/>
    </linearGradient>
    <filter id="filter0_f_1523_2" x="11.01" y="0.630005" width="60.9224" height="69.7488" filterUnits="userSpaceOnUse" color-interpolation-filters="sRGB">
        <feFlood flood-opacity="0" result="BackgroundImageFix"/>
        <feBlend mode="normal" in="SourceGraphic" in2="BackgroundImageFix" result="shape"/>
        <feGaussianBlur stdDeviation="7.5" result="effect1_foregroundBlur_1523_2"/>
    </filter>
</defs>
</svg>
