<svg width="157" height="201" viewBox="0 0 157 201" fill="none" xmlns="http://www.w3.org/2000/svg">
<path d="M0.868731 37.4693C0.941509 31.9988 5.39688 27.6023 10.8678 27.6023H97.4667C98.4507 27.6023 99.3968 27.2224 100.107 26.5418C101.248 25.4499 101.599 23.7688 100.99 22.312L100.745 21.7263C99.4399 18.6013 101.736 15.1544 105.122 15.1544H112.229C113.881 15.1544 115.504 15.5863 116.938 16.4073L147.969 34.1771C151.081 35.9588 153 39.2697 153 42.855V58.9614V102.768L154.5 174.104H72.8116C69.4902 174.104 66.3857 175.753 64.526 178.505L59.474 185.981C57.6144 188.733 54.5097 190.382 51.1884 190.382H40.9105C39.1672 190.382 37.4541 189.926 35.9412 189.06L5.03068 171.36C1.91939 169.578 0 166.267 0 162.682V146.575V102.768L0.868731 37.4693Z" fill="url(#paint0_linear_1512_5)"/>
<path d="M2 15.1544V102.768V146.575V162.682C2 166.267 3.91939 169.578 7.03068 171.36L37.9412 189.06C39.4541 189.926 41.1672 190.382 42.9105 190.382H50.625H55.5H56M97.5 15.1544H114.089C115.833 15.1544 117.546 15.6102 119.059 16.4765L149.969 34.1771C153.081 35.9588 155 39.2697 155 42.855V58.9614V102.768V160.22V178.413" stroke="url(#paint1_linear_1512_5)" stroke-width="4"/>
<path d="M65.0437 175.576C65.9472 174.069 67.5752 173.147 69.3321 173.147H150C152.761 173.147 155 175.385 155 178.147V194C155 196.761 152.761 199 150 199H59.8274C55.9417 199 53.5411 194.762 55.5391 191.429L65.0437 175.576Z" fill="#041231" stroke="url(#paint2_linear_1512_5)" stroke-width="4"/>
<path d="M91.9563 5.13553C91.0528 3.62867 89.4248 2.70654 87.6679 2.70654H7C4.23857 2.70654 2 4.94512 2 7.70654V23.5598C2 26.3212 4.23858 28.5598 7 28.5598H97.1726C101.058 28.5598 103.459 24.3215 101.461 20.9888L91.9563 5.13553Z" fill="#041231" stroke="url(#paint3_linear_1512_5)" stroke-width="4"/>
<defs>
<linearGradient id="paint0_linear_1512_5" x1="76.5" y1="15.1544" x2="76.5" y2="190.382" gradientUnits="userSpaceOnUse">
<stop stop-color="#1E2024"/>
<stop offset="1" stop-color="#004327"/>
</linearGradient>
<linearGradient id="paint1_linear_1512_5" x1="2" y1="102.056" x2="155" y2="102.056" gradientUnits="userSpaceOnUse">
<stop stop-color="#92FE9D"/>
<stop offset="1" stop-color="#00C9FF"/>
</linearGradient>
<linearGradient id="paint2_linear_1512_5" x1="51" y1="185.968" x2="155" y2="185.968" gradientUnits="userSpaceOnUse">
<stop stop-color="#92FE9D"/>
<stop offset="1" stop-color="#00C9FF"/>
</linearGradient>
<linearGradient id="paint3_linear_1512_5" x1="106" y1="15.5281" x2="2" y2="15.5281" gradientUnits="userSpaceOnUse">
<stop stop-color="#00C9FF"/>
<stop offset="1" stop-color="#92FE9D"/>
</linearGradient>
</defs>
</svg>
