<svg width="42" height="42" viewBox="0 0 42 42" fill="none" xmlns="http://www.w3.org/2000/svg">
<path d="M25.5939 28.9693H22.5547V19.0312C22.5547 18.8508 22.407 18.7031 22.2265 18.7031H19.7656C19.5851 18.7031 19.4375 18.8508 19.4375 19.0312V28.9693H16.4064C16.1316 28.9693 15.9799 29.2852 16.148 29.4984L20.7418 35.3104C20.7725 35.3496 20.8117 35.3813 20.8565 35.4031C20.9012 35.4249 20.9504 35.4362 21.0002 35.4362C21.05 35.4362 21.0991 35.4249 21.1439 35.4031C21.1887 35.3813 21.2279 35.3496 21.2586 35.3104L25.8523 29.4984C26.0205 29.2852 25.8687 28.9693 25.5939 28.9693Z" fill="url(#paint0_linear_394_2983)"/>
<path d="M33.2801 15.0404C31.4016 10.0857 26.615 6.5625 21.0082 6.5625C15.4014 6.5625 10.6148 10.0816 8.73633 15.0363C5.22129 15.9592 2.625 19.1625 2.625 22.9688C2.625 27.501 6.2959 31.1719 10.824 31.1719H12.4688C12.6492 31.1719 12.7969 31.0242 12.7969 30.8438V28.3828C12.7969 28.2023 12.6492 28.0547 12.4688 28.0547H10.824C9.4418 28.0547 8.1416 27.5051 7.17363 26.5084C6.20977 25.5158 5.69707 24.1787 5.74219 22.7924C5.7791 21.7096 6.14824 20.6924 6.8168 19.8352C7.50176 18.9615 8.46152 18.3258 9.52793 18.0428L11.0824 17.6367L11.6525 16.1355C12.0053 15.2004 12.4975 14.3268 13.1168 13.5352C13.7282 12.7506 14.4525 12.0608 15.266 11.4885C16.9518 10.3031 18.9369 9.67559 21.0082 9.67559C23.0795 9.67559 25.0646 10.3031 26.7504 11.4885C27.5666 12.0627 28.2885 12.7518 28.8996 13.5352C29.5189 14.3268 30.0111 15.2045 30.3639 16.1355L30.9299 17.6326L32.4803 18.0428C34.7033 18.6416 36.2578 20.6637 36.2578 22.9688C36.2578 24.3264 35.7287 25.6061 34.7689 26.5658C34.2983 27.0393 33.7383 27.4146 33.1216 27.6702C32.5049 27.9257 31.8436 28.0564 31.176 28.0547H29.5312C29.3508 28.0547 29.2031 28.2023 29.2031 28.3828V30.8438C29.2031 31.0242 29.3508 31.1719 29.5312 31.1719H31.176C35.7041 31.1719 39.375 27.501 39.375 22.9688C39.375 19.1666 36.7869 15.9674 33.2801 15.0404Z" fill="url(#paint1_linear_394_2983)"/>
<defs>
<linearGradient id="paint0_linear_394_2983" x1="16.0776" y1="27.0017" x2="25.9227" y2="27.0017" gradientUnits="userSpaceOnUse">
<stop stop-color="#92FE9D"/>
<stop offset="1" stop-color="#00C9FF"/>
</linearGradient>
<linearGradient id="paint1_linear_394_2983" x1="2.625" y1="18.7671" x2="39.375" y2="18.7671" gradientUnits="userSpaceOnUse">
<stop stop-color="#92FE9D"/>
<stop offset="1" stop-color="#00C9FF"/>
</linearGradient>
</defs>
</svg>
