<svg width="1922" height="405" viewBox="0 0 1922 405" fill="none" xmlns="http://www.w3.org/2000/svg">
<g clip-path="url(#clip0_1523_36)">
<path d="M1015 78.5C778.62 78.5 282.5 55 0 0V404.5C276.77 379.93 708.51 355.5 1007 355.5C1305.49 355.5 1645.73 373.93 1921 398L1919.5 13C1701.11 36.1401 1251.38 78.5 1015 78.5Z" fill="#030D23"/>
<g filter="url(#filter0_d_1523_36)">
<path d="M1921.5 398.5C1645.73 373.925 1305.49 355.5 1007 355.5C708.505 355.5 275.773 380.425 0 405M0 1C282.5 55 778.621 78.5 1015 78.5C1251.38 78.5 1701.11 36.1423 1919.5 13" stroke="url(#paint0_linear_1523_36)" stroke-width="3"/>
</g>
</g>
<defs>
<filter id="filter0_d_1523_36" x="-15.2816" y="-15.4733" width="1951.91" height="436.967" filterUnits="userSpaceOnUse" color-interpolation-filters="sRGB">
<feFlood flood-opacity="0" result="BackgroundImageFix"/>
<feColorMatrix in="SourceAlpha" type="matrix" values="0 0 0 0 0 0 0 0 0 0 0 0 0 0 0 0 0 0 127 0" result="hardAlpha"/>
<feOffset/>
<feGaussianBlur stdDeviation="7.5"/>
<feComposite in2="hardAlpha" operator="out"/>
<feColorMatrix type="matrix" values="0 0 0 0 0.00392157 0 0 0 0 0.788235 0 0 0 0 1 0 0 0 1 0"/>
<feBlend mode="normal" in2="BackgroundImageFix" result="effect1_dropShadow_1523_36"/>
<feBlend mode="normal" in="SourceGraphic" in2="effect1_dropShadow_1523_36" result="shape"/>
</filter>
<linearGradient id="paint0_linear_1523_36" x1="0" y1="201.358" x2="1921.5" y2="201.358" gradientUnits="userSpaceOnUse">
<stop stop-color="#92FE9D"/>
<stop offset="1" stop-color="#00C9FF"/>
</linearGradient>
<clipPath id="clip0_1523_36">
<rect width="1921.5" height="405" fill="white"/>
</clipPath>
</defs>
</svg>
