<svg width="168" height="43" viewBox="0 0 168 43" fill="none" xmlns="http://www.w3.org/2000/svg">
<path d="M7.92012 2.82616C8.86986 1.67004 10.2874 1 11.7836 1H156.216C157.713 1 159.13 1.67004 160.08 2.82616L165.864 9.86656C166.598 10.761 167 11.8828 167 13.0404V21.5V29.9596C167 31.1172 166.598 32.239 165.864 33.1334L160.08 40.1738C159.13 41.33 157.713 42 156.216 42H11.7836C10.2874 42 8.86986 41.33 7.92012 40.1738L2.13649 33.1334C1.40167 32.239 1 31.1172 1 29.9596V21.5V13.0404C1 11.8828 1.40167 10.761 2.13649 9.86656L7.92012 2.82616Z" stroke="url(#paint0_linear_160_33)" stroke-width="2"/>
<defs>
<linearGradient id="paint0_linear_160_33" x1="1" y1="21.3333" x2="167" y2="21.3333" gradientUnits="userSpaceOnUse">
<stop stop-color="#92FE9D"/>
<stop offset="1" stop-color="#00C9FF"/>
</linearGradient>
</defs>
</svg>
