<svg width="15" height="17" viewBox="0 0 15 17" fill="none" xmlns="http://www.w3.org/2000/svg">
<path d="M8.25 0.774902C9.83333 0.774902 11.0833 0.883236 12 1.0999C12.9333 1.31657 13.6083 1.6999 14.025 2.2499C14.4583 2.78324 14.675 3.53324 14.675 4.4999V7.5749C14.675 8.64157 14.4417 9.4749 13.975 10.0749C13.525 10.6749 12.8 11.0999 11.8 11.3499C10.8167 11.5999 9.48333 11.7249 7.8 11.7249H5.65V12.9499H8.45V14.9749H5.65V16.9999H1.75V14.9749H0.5V12.9499H1.75V11.7249H0.5V9.0499H1.75V0.774902H8.25ZM10.9 4.8499C10.9 4.31657 10.7 3.96657 10.3 3.7999C9.91667 3.63324 9.175 3.5499 8.075 3.5499H5.65V9.0499H8.125C9.14167 9.0499 9.85833 8.93324 10.275 8.6999C10.6917 8.4499 10.9 8.03324 10.9 7.4499V4.8499Z" fill="white"/>
</svg>
