<svg width="77" height="77" viewBox="0 0 77 77" fill="none" xmlns="http://www.w3.org/2000/svg">
<path d="M41.7087 60.9583H44.917C45.7679 60.9583 46.584 61.2964 47.1856 61.898C47.7873 62.4997 48.1253 63.3158 48.1253 64.1667H70.5837V70.5833H48.1253C48.1253 71.4342 47.7873 72.2503 47.1856 72.852C46.584 73.4537 45.7679 73.7917 44.917 73.7917H32.0837C31.2328 73.7917 30.4167 73.4537 29.815 72.852C29.2133 72.2503 28.8753 71.4342 28.8753 70.5833H6.41699V64.1667H28.8753C28.8753 63.3158 29.2133 62.4997 29.815 61.898C30.4167 61.2964 31.2328 60.9583 32.0837 60.9583H35.292V55.6325C25.8916 51.7504 19.2503 41.7083 19.2503 31.0246V18.1913L38.5003 9.625L57.7503 18.1913V31.0246C57.7503 41.7083 51.1091 51.7504 41.7087 55.6325V60.9583ZM38.5003 16.0417L25.667 21.4638V32.0833H38.5003V16.0417ZM38.5003 32.0833V51.3333C44.6282 49.8254 51.3337 41.9008 51.3337 35.2917V32.0833H38.5003Z" fill="url(#paint0_linear_160_66)"/>
<defs>
<linearGradient id="paint0_linear_160_66" x1="6.41699" y1="41.4475" x2="70.5837" y2="41.4475" gradientUnits="userSpaceOnUse">
<stop stop-color="#92FE9D"/>
<stop offset="1" stop-color="#00C9FF"/>
</linearGradient>
</defs>
</svg>
