<svg width="118" height="118" viewBox="0 0 118 118" fill="none" xmlns="http://www.w3.org/2000/svg">
<path d="M63.9163 93.4167H68.833C70.137 93.4167 71.3876 93.9347 72.3096 94.8567C73.2317 95.7788 73.7497 97.0294 73.7497 98.3333H108.166V108.167H73.7497C73.7497 109.471 73.2317 110.721 72.3096 111.643C71.3876 112.565 70.137 113.083 68.833 113.083H49.1663C47.8624 113.083 46.6118 112.565 45.6897 111.643C44.7677 110.721 44.2497 109.471 44.2497 108.167H9.83301V98.3333H44.2497C44.2497 97.0294 44.7677 95.7788 45.6897 94.8567C46.6118 93.9347 47.8624 93.4167 49.1663 93.4167H54.083V85.255C39.6772 79.3058 29.4997 63.9167 29.4997 47.5442V27.8775L58.9997 14.75L88.4997 27.8775V47.5442C88.4997 63.9167 78.3222 79.3058 63.9163 85.255V93.4167ZM58.9997 24.5833L39.333 32.8925V49.1667H58.9997V24.5833ZM58.9997 49.1667V78.6667C68.3905 76.3558 78.6663 64.2117 78.6663 54.0833V49.1667H58.9997Z" fill="url(#paint0_linear_160_64)"/>
<defs>
<linearGradient id="paint0_linear_160_64" x1="9.83301" y1="63.5169" x2="108.166" y2="63.5169" gradientUnits="userSpaceOnUse">
<stop stop-color="#92FE9D"/>
<stop offset="1" stop-color="#00C9FF"/>
</linearGradient>
</defs>
</svg>
