<svg width="91" height="91" viewBox="0 0 91 91" fill="none" xmlns="http://www.w3.org/2000/svg">
<path d="M1.98344 59.0031C4.80601 68.2306 10.5165 76.3082 18.2742 82.0467C26.0319 87.7852 35.427 90.8816 45.0766 90.88C69.9616 90.88 90.1328 70.7313 90.1328 45.88C90.1328 21.0288 69.9616 0.880008 45.0822 0.880008C33.6594 0.875589 22.6617 5.21215 14.316 13.0116C5.97035 20.811 0.900422 31.4905 0.132812 42.8875L0.149688 42.9213L24.3597 52.8719C26.5432 51.4263 29.1293 50.7113 31.7453 50.83L42.7703 34.8325L42.7647 34.6075C42.7692 30.0702 44.5732 25.7199 47.781 22.511C50.9889 19.3021 55.3386 17.4966 59.8759 17.4906C64.4133 17.4966 68.763 19.3021 71.9708 22.511C75.1787 25.7199 76.9827 30.0702 76.9872 34.6075C76.9854 36.8875 76.5288 39.1442 75.6441 41.2455C74.7593 43.3468 73.4642 45.2504 71.8345 46.845C70.2049 48.4395 68.2735 49.6929 66.1535 50.5317C64.0334 51.3705 61.7673 51.7779 59.4878 51.73L43.7153 62.98C43.7688 65.0639 43.3005 67.1281 42.353 68.9848C41.4054 70.8416 40.0087 72.432 38.2899 73.6114C36.5711 74.7909 34.5847 75.5219 32.5113 75.738C30.438 75.9541 28.3435 75.6484 26.4184 74.8488C24.5708 74.0788 22.9356 72.8754 21.651 71.3403C20.3665 69.8051 19.4704 67.9833 19.0384 66.0288L1.98906 59.0031H1.98344Z" fill="url(#paint0_linear_160_26)"/>
<path d="M27.515 72.2219C29.8585 73.1164 32.4584 73.0629 34.7631 72.0727C37.0679 71.0825 38.8964 69.2335 39.8607 66.9178C40.825 64.6021 40.8494 62.0018 39.9287 59.6684C39.008 57.335 37.2145 55.452 34.9287 54.4188C32.6623 53.4731 30.1195 53.4328 27.8243 54.3063L33.5787 56.6913C34.4393 57.0495 35.2209 57.5738 35.8788 58.2341C36.5368 58.8944 37.0582 59.6779 37.4134 60.5397C37.7686 61.4015 37.9506 62.3249 37.9489 63.2571C37.9472 64.1892 37.762 65.1119 37.4037 65.9725C37.0454 66.8331 36.5212 67.6146 35.8609 68.2726C35.2006 68.9306 34.4171 69.452 33.5553 69.8072C32.6934 70.1624 31.7701 70.3443 30.8379 70.3427C29.9057 70.341 28.983 70.1558 28.1225 69.7975L22.5537 67.4913C23.5671 69.625 25.3344 71.3081 27.515 72.2163V72.2219ZM48.4737 34.6075C48.4752 37.632 49.6766 40.5325 51.8142 42.6722C53.9518 44.8119 56.851 46.0162 59.8756 46.0206C62.9001 46.0162 65.7993 44.8119 67.937 42.6722C70.0746 40.5325 71.276 37.632 71.2775 34.6075C71.273 31.5849 70.0703 28.6874 67.933 26.5501C65.7957 24.4128 62.8982 23.2101 59.8756 23.2056C56.853 23.2101 53.9555 24.4128 51.8182 26.5501C49.6809 28.6874 48.4782 31.5849 48.4737 34.6075ZM59.8925 26.0181C61.0182 26.0189 62.1328 26.2413 63.1726 26.6728C64.2124 27.1043 65.157 27.7364 65.9525 28.5329C66.748 29.3295 67.3788 30.2749 67.8089 31.3153C68.2391 32.3556 68.4601 33.4705 68.4593 34.5963C68.4586 35.722 68.2361 36.8366 67.8046 37.8764C67.3731 38.9162 66.7411 39.8608 65.9445 40.6563C65.148 41.4518 64.2025 42.0826 63.1622 42.5127C62.1218 42.9429 61.007 43.1639 59.8812 43.1631C57.6076 43.1616 55.4278 42.257 53.8212 40.6483C52.2146 39.0396 51.3128 36.8586 51.3143 34.585C51.3158 32.3114 52.2204 30.1316 53.8291 28.525C55.4379 26.9184 57.6189 26.0166 59.8925 26.0181Z" fill="url(#paint1_linear_160_26)"/>
<defs>
<linearGradient id="paint0_linear_160_26" x1="0.132813" y1="45.5142" x2="90.1328" y2="45.5142" gradientUnits="userSpaceOnUse">
<stop stop-color="#92FE9D"/>
<stop offset="1" stop-color="#00C9FF"/>
</linearGradient>
<linearGradient id="paint1_linear_160_26" x1="22.5537" y1="47.829" x2="71.2775" y2="47.829" gradientUnits="userSpaceOnUse">
<stop stop-color="#92FE9D"/>
<stop offset="1" stop-color="#00C9FF"/>
</linearGradient>
</defs>
</svg>
