<svg viewBox="0 0 1489 218" preserveAspectRatio="none" fill="none" xmlns="http://www.w3.org/2000/svg">
<g filter="url(#filter0_d_297_281)">
<path d="M558.972 12.7695C559.77 12.2668 560.694 12 561.637 12H927.363C928.306 12 929.23 12.2668 930.028 12.7695L990.348 50.7695C994.59 53.4421 992.697 60 987.683 60H501.317C496.303 60 494.41 53.4421 498.652 50.7695L558.972 12.7695Z" stroke="url(#paint0_linear_297_281)" stroke-width="4" shape-rendering="crispEdges"/>
</g>
<g filter="url(#filter1_d_297_281)">
<path d="M17 70C17 64.4772 21.4772 60 27 60L744.5 60L1394.73 60C1395.85 60 1396.95 60.1868 1398.01 60.5528L1465.28 83.8999C1469.3 85.2963 1472 89.088 1472 93.3471V95.25V130.5V191C1472 196.523 1467.52 201 1462 201H744.5H94.2704C93.1543 201 92.046 200.813 90.9916 200.447L23.7212 177.1C19.6976 175.704 17 171.912 17 167.653V165.75V130.5V70Z" fill="url(#paint1_linear_297_281)"/>
<path d="M17 70C17 64.4772 21.4772 60 27 60L744.5 60L1394.73 60C1395.85 60 1396.95 60.1868 1398.01 60.5528L1465.28 83.8999C1469.3 85.2963 1472 89.088 1472 93.3471V95.25V130.5V191C1472 196.523 1467.52 201 1462 201H744.5H94.2704C93.1543 201 92.046 200.813 90.9916 200.447L23.7212 177.1C19.6976 175.704 17 171.912 17 167.653V165.75V130.5V70Z" stroke="url(#paint2_linear_297_281)" stroke-width="4"/>
</g>
<defs>
<filter id="filter0_d_297_281" x="484.305" y="0" width="520.391" height="72" filterUnits="userSpaceOnUse" color-interpolation-filters="sRGB">
<feFlood flood-opacity="0" result="BackgroundImageFix"/>
<feColorMatrix in="SourceAlpha" type="matrix" values="0 0 0 0 0 0 0 0 0 0 0 0 0 0 0 0 0 0 127 0" result="hardAlpha"/>
<feOffset/>
<feGaussianBlur stdDeviation="5"/>
<feComposite in2="hardAlpha" operator="out"/>
<feColorMatrix type="matrix" values="0 0 0 0 0.00392157 0 0 0 0 0.788235 0 0 0 0 1 0 0 0 1 0"/>
<feBlend mode="normal" in2="BackgroundImageFix" result="effect1_dropShadow_297_281"/>
<feBlend mode="normal" in="SourceGraphic" in2="effect1_dropShadow_297_281" result="shape"/>
</filter>
<filter id="filter1_d_297_281" x="0" y="43" width="1489" height="175" filterUnits="userSpaceOnUse" color-interpolation-filters="sRGB">
<feFlood flood-opacity="0" result="BackgroundImageFix"/>
<feColorMatrix in="SourceAlpha" type="matrix" values="0 0 0 0 0 0 0 0 0 0 0 0 0 0 0 0 0 0 127 0" result="hardAlpha"/>
<feOffset/>
<feGaussianBlur stdDeviation="7.5"/>
<feComposite in2="hardAlpha" operator="out"/>
<feColorMatrix type="matrix" values="0 0 0 0 0.00392157 0 0 0 0 0.788235 0 0 0 0 1 0 0 0 1 0"/>
<feBlend mode="normal" in2="BackgroundImageFix" result="effect1_dropShadow_297_281"/>
<feBlend mode="normal" in="SourceGraphic" in2="effect1_dropShadow_297_281" result="shape"/>
</filter>
<linearGradient id="paint0_linear_297_281" x1="484" y1="35.8049" x2="1005" y2="35.8049" gradientUnits="userSpaceOnUse">
<stop stop-color="#92FE9D"/>
<stop offset="1" stop-color="#00C9FF"/>
</linearGradient>
<linearGradient id="paint1_linear_297_281" x1="744.5" y1="60" x2="744.5" y2="201" gradientUnits="userSpaceOnUse">
<stop stop-color="#040C20"/>
<stop offset="1" stop-color="#061536"/>
</linearGradient>
<linearGradient id="paint2_linear_297_281" x1="17" y1="129.927" x2="1472" y2="129.927" gradientUnits="userSpaceOnUse">
<stop stop-color="#92FE9D"/>
<stop offset="1" stop-color="#00C9FF"/>
</linearGradient>
</defs>
</svg>
