<svg width="1489" height="187" viewBox="0 0 1489 187" fill="none" xmlns="http://www.w3.org/2000/svg">
<g filter="url(#filter0_d_297_287)">
<path d="M489.867 12.4537C490.52 12.1547 491.229 12 491.948 12H997.052C997.771 12 998.48 12.1547 999.133 12.4537L1082.15 50.4537C1087.03 52.6888 1085.43 60 1080.06 60H408.935C403.565 60 401.972 52.6888 406.854 50.4537L489.867 12.4537Z" stroke="url(#paint0_linear_297_287)" stroke-width="4" shape-rendering="crispEdges"/>
</g>
<g filter="url(#filter1_d_297_287)">
<path d="M17 70C17 64.4772 21.4772 60 27 60H744.5H1358.98C1360.13 60 1361.27 60.1994 1362.36 60.5895L1465.38 97.6214C1469.35 99.0484 1472 102.813 1472 107.032V114V139.5V160C1472 165.523 1467.52 170 1462 170H744.5H130.024C128.871 170 127.726 169.801 126.641 169.411L23.6174 132.379C19.6474 130.952 17 127.187 17 122.968V119V115V70Z" fill="url(#paint1_linear_297_287)"/>
<path d="M17 70C17 64.4772 21.4772 60 27 60H744.5H1358.98C1360.13 60 1361.27 60.1994 1362.36 60.5895L1465.38 97.6214C1469.35 99.0484 1472 102.813 1472 107.032V114V139.5V160C1472 165.523 1467.52 170 1462 170H744.5H130.024C128.871 170 127.726 169.801 126.641 169.411L23.6174 132.379C19.6474 130.952 17 127.187 17 122.968V119V115V70Z" stroke="url(#paint2_linear_297_287)" stroke-width="4"/>
</g>
<defs>
<filter id="filter0_d_297_287" x="391.926" y="0" width="705.148" height="72" filterUnits="userSpaceOnUse" color-interpolation-filters="sRGB">
<feFlood flood-opacity="0" result="BackgroundImageFix"/>
<feColorMatrix in="SourceAlpha" type="matrix" values="0 0 0 0 0 0 0 0 0 0 0 0 0 0 0 0 0 0 127 0" result="hardAlpha"/>
<feOffset/>
<feGaussianBlur stdDeviation="5"/>
<feComposite in2="hardAlpha" operator="out"/>
<feColorMatrix type="matrix" values="0 0 0 0 0.00392157 0 0 0 0 0.788235 0 0 0 0 1 0 0 0 1 0"/>
<feBlend mode="normal" in2="BackgroundImageFix" result="effect1_dropShadow_297_287"/>
<feBlend mode="normal" in="SourceGraphic" in2="effect1_dropShadow_297_287" result="shape"/>
</filter>
<filter id="filter1_d_297_287" x="0" y="43" width="1489" height="144" filterUnits="userSpaceOnUse" color-interpolation-filters="sRGB">
<feFlood flood-opacity="0" result="BackgroundImageFix"/>
<feColorMatrix in="SourceAlpha" type="matrix" values="0 0 0 0 0 0 0 0 0 0 0 0 0 0 0 0 0 0 127 0" result="hardAlpha"/>
<feOffset/>
<feGaussianBlur stdDeviation="7.5"/>
<feComposite in2="hardAlpha" operator="out"/>
<feColorMatrix type="matrix" values="0 0 0 0 0.00392157 0 0 0 0 0.788235 0 0 0 0 1 0 0 0 1 0"/>
<feBlend mode="normal" in2="BackgroundImageFix" result="effect1_dropShadow_297_287"/>
<feBlend mode="normal" in="SourceGraphic" in2="effect1_dropShadow_297_287" result="shape"/>
</filter>
<linearGradient id="paint0_linear_297_287" x1="386" y1="35.8049" x2="1103" y2="35.8049" gradientUnits="userSpaceOnUse">
<stop stop-color="#92FE9D"/>
<stop offset="1" stop-color="#00C9FF"/>
</linearGradient>
<linearGradient id="paint1_linear_297_287" x1="744.5" y1="60" x2="744.5" y2="170" gradientUnits="userSpaceOnUse">
<stop stop-color="#040C20"/>
<stop offset="1" stop-color="#061536"/>
</linearGradient>
<linearGradient id="paint2_linear_297_287" x1="17" y1="114.553" x2="1472" y2="114.553" gradientUnits="userSpaceOnUse">
<stop stop-color="#92FE9D"/>
<stop offset="1" stop-color="#00C9FF"/>
</linearGradient>
</defs>
</svg>
