<svg width="754" height="162" viewBox="0 0 754 162" fill="none" xmlns="http://www.w3.org/2000/svg">
<path d="M118.867 2.4537C119.52 2.15474 120.229 2 120.948 2H626.052C626.77 2 627.48 2.15474 628.133 2.45369L711.146 40.4537C716.028 42.6888 714.434 50 709.065 50H37.9354C32.5655 50 30.9716 42.6888 35.8542 40.4537L118.867 2.4537Z" stroke="url(#paint0_linear_1820_33)" stroke-width="4"/>
<path d="M2 60C2 54.4772 6.47715 50 12 50H377H691.496C693.542 50 695.538 50.6273 697.216 51.7974L747.72 87.0154C750.402 88.8855 752 91.9485 752 95.2179V104V129.5V150C752 155.523 747.523 160 742 160H377H62.5037C60.4581 160 58.4617 159.373 56.7838 158.203L6.28006 122.985C3.59825 121.115 2 118.052 2 114.782V109V105V60Z" fill="url(#paint1_linear_1820_33)" stroke="url(#paint2_linear_1820_33)" stroke-width="4"/>
<defs>
<linearGradient id="paint0_linear_1820_33" x1="15" y1="25.8049" x2="732" y2="25.8049" gradientUnits="userSpaceOnUse">
<stop stop-color="#92FE9D"/>
<stop offset="1" stop-color="#00C9FF"/>
</linearGradient>
<linearGradient id="paint1_linear_1820_33" x1="377" y1="50" x2="377" y2="160" gradientUnits="userSpaceOnUse">
<stop stop-color="#040C20"/>
<stop offset="1" stop-color="#061536"/>
</linearGradient>
<linearGradient id="paint2_linear_1820_33" x1="2" y1="104.553" x2="752" y2="104.553" gradientUnits="userSpaceOnUse">
<stop stop-color="#92FE9D"/>
<stop offset="1" stop-color="#00C9FF"/>
</linearGradient>
</defs>
</svg>
