<svg width="803" height="265" viewBox="0 0 803 265" fill="none" xmlns="http://www.w3.org/2000/svg">
<g filter="url(#filter0_d_297_247)">
<path d="M17 27C17 21.4772 21.4772 17 27 17H401.5H743.442C745.12 17 746.772 17.4224 748.244 18.2282L780.802 36.0502C784.007 37.8047 786 41.1679 786 44.822V74.75V132.5V238C786 243.523 781.523 248 776 248H401.5H59.5579C57.8797 248 56.2284 247.578 54.7563 246.772L22.1984 228.95C18.9931 227.195 17 223.832 17 220.178V190.25V132.5V27Z" fill="url(#paint0_linear_297_247)"/>
<path d="M17 27C17 21.4772 21.4772 17 27 17H401.5H743.442C745.12 17 746.772 17.4224 748.244 18.2282L780.802 36.0502C784.007 37.8047 786 41.1679 786 44.822V74.75V132.5V238C786 243.523 781.523 248 776 248H401.5H59.5579C57.8797 248 56.2284 247.578 54.7563 246.772L22.1984 228.95C18.9931 227.195 17 223.832 17 220.178V190.25V132.5V27Z" stroke="url(#paint1_linear_297_247)" stroke-width="4"/>
</g>
<defs>
<filter id="filter0_d_297_247" x="0" y="0" width="803" height="265" filterUnits="userSpaceOnUse" color-interpolation-filters="sRGB">
<feFlood flood-opacity="0" result="BackgroundImageFix"/>
<feColorMatrix in="SourceAlpha" type="matrix" values="0 0 0 0 0 0 0 0 0 0 0 0 0 0 0 0 0 0 127 0" result="hardAlpha"/>
<feOffset/>
<feGaussianBlur stdDeviation="7.5"/>
<feComposite in2="hardAlpha" operator="out"/>
<feColorMatrix type="matrix" values="0 0 0 0 0.00392157 0 0 0 0 0.788235 0 0 0 0 1 0 0 0 1 0"/>
<feBlend mode="normal" in2="BackgroundImageFix" result="effect1_dropShadow_297_247"/>
<feBlend mode="normal" in="SourceGraphic" in2="effect1_dropShadow_297_247" result="shape"/>
</filter>
<linearGradient id="paint0_linear_297_247" x1="401.5" y1="17" x2="401.5" y2="248" gradientUnits="userSpaceOnUse">
<stop stop-color="#040C20"/>
<stop offset="1" stop-color="#061536"/>
</linearGradient>
<linearGradient id="paint1_linear_297_247" x1="17" y1="131.561" x2="786" y2="131.561" gradientUnits="userSpaceOnUse">
<stop stop-color="#92FE9D"/>
<stop offset="1" stop-color="#00C9FF"/>
</linearGradient>
</defs>
</svg>
