<svg width="1489" height="347" viewBox="0 0 1489 347" fill="none" xmlns="http://www.w3.org/2000/svg">
<g filter="url(#filter0_d_297_299)">
<path d="M616.069 13.3098C616.991 12.4672 618.194 12 619.443 12H869.557C870.806 12 872.009 12.4672 872.931 13.3098L914.495 51.3098C917.863 54.3889 915.684 60 911.121 60H577.879C573.316 60 571.137 54.3889 574.505 51.3098L616.069 13.3098Z" stroke="url(#paint0_linear_297_299)" stroke-width="4" shape-rendering="crispEdges"/>
</g>
<g filter="url(#filter1_d_297_299)">
<path d="M17 70C17 64.4772 21.4772 60 27 60H744.5H1411.67C1413.48 60 1415.25 60.4917 1416.81 61.4228L1467.14 91.5924C1470.16 93.3991 1472 96.6554 1472 100.17V127.5V195V320C1472 325.523 1467.52 330 1462 330H744.5H77.3342C75.5232 330 73.7463 329.508 72.1931 328.577L21.8589 298.408C18.8447 296.601 17 293.345 17 289.83V273.498V262.5V195V70Z" fill="url(#paint1_linear_297_299)"/>
<path d="M17 70C17 64.4772 21.4772 60 27 60H744.5H1411.67C1413.48 60 1415.25 60.4917 1416.81 61.4228L1467.14 91.5924C1470.16 93.3991 1472 96.6554 1472 100.17V127.5V195V320C1472 325.523 1467.52 330 1462 330H744.5H77.3342C75.5232 330 73.7463 329.508 72.1931 328.577L21.8589 298.408C18.8447 296.601 17 293.345 17 289.83V273.498V262.5V195V70Z" stroke="url(#paint2_linear_297_299)" stroke-width="4"/>
</g>
<defs>
<filter id="filter0_d_297_299" x="560.865" y="0" width="367.271" height="72" filterUnits="userSpaceOnUse" color-interpolation-filters="sRGB">
<feFlood flood-opacity="0" result="BackgroundImageFix"/>
<feColorMatrix in="SourceAlpha" type="matrix" values="0 0 0 0 0 0 0 0 0 0 0 0 0 0 0 0 0 0 127 0" result="hardAlpha"/>
<feOffset/>
<feGaussianBlur stdDeviation="5"/>
<feComposite in2="hardAlpha" operator="out"/>
<feColorMatrix type="matrix" values="0 0 0 0 0.00392157 0 0 0 0 0.788235 0 0 0 0 1 0 0 0 1 0"/>
<feBlend mode="normal" in2="BackgroundImageFix" result="effect1_dropShadow_297_299"/>
<feBlend mode="normal" in="SourceGraphic" in2="effect1_dropShadow_297_299" result="shape"/>
</filter>
<filter id="filter1_d_297_299" x="0" y="43" width="1489" height="304" filterUnits="userSpaceOnUse" color-interpolation-filters="sRGB">
<feFlood flood-opacity="0" result="BackgroundImageFix"/>
<feColorMatrix in="SourceAlpha" type="matrix" values="0 0 0 0 0 0 0 0 0 0 0 0 0 0 0 0 0 0 127 0" result="hardAlpha"/>
<feOffset/>
<feGaussianBlur stdDeviation="7.5"/>
<feComposite in2="hardAlpha" operator="out"/>
<feColorMatrix type="matrix" values="0 0 0 0 0.00392157 0 0 0 0 0.788235 0 0 0 0 1 0 0 0 1 0"/>
<feBlend mode="normal" in2="BackgroundImageFix" result="effect1_dropShadow_297_299"/>
<feBlend mode="normal" in="SourceGraphic" in2="effect1_dropShadow_297_299" result="shape"/>
</filter>
<linearGradient id="paint0_linear_297_299" x1="565" y1="35.8049" x2="924" y2="35.8049" gradientUnits="userSpaceOnUse">
<stop stop-color="#92FE9D"/>
<stop offset="1" stop-color="#00C9FF"/>
</linearGradient>
<linearGradient id="paint1_linear_297_299" x1="744.5" y1="60" x2="744.5" y2="330" gradientUnits="userSpaceOnUse">
<stop stop-color="#040C20"/>
<stop offset="1" stop-color="#061536"/>
</linearGradient>
<linearGradient id="paint2_linear_297_299" x1="17" y1="193.902" x2="1472" y2="193.902" gradientUnits="userSpaceOnUse">
<stop stop-color="#92FE9D"/>
<stop offset="1" stop-color="#00C9FF"/>
</linearGradient>
</defs>
</svg>
