<svg width="754" height="427" viewBox="0 0 754 427" fill="none" xmlns="http://www.w3.org/2000/svg">
<path d="M175.579 2.68828C176.346 2.23761 177.22 2 178.11 2H570.89C571.78 2 572.654 2.23761 573.421 2.68828L638.141 40.6883C642.535 43.2686 640.705 50 635.609 50H113.391C108.295 50 106.465 43.2686 110.859 40.6883L175.579 2.68828Z" stroke="url(#paint0_linear_1820_39)" stroke-width="4"/>
<path d="M2 60C2 54.4772 6.47715 50 12 50H377H709.116C711.607 50 714.009 50.9301 715.851 52.6081L748.735 82.5702C750.815 84.4651 752 87.1485 752 89.962V143.75V237.5V415C752 420.523 747.523 425 742 425H377H44.8842C42.3927 425 39.9909 424.07 38.1492 422.392L5.265 392.43C3.18526 390.535 2 387.852 2 385.038V331.25V237.5V60Z" fill="url(#paint1_linear_1820_39)" stroke="url(#paint2_linear_1820_39)" stroke-width="4"/>
<defs>
<linearGradient id="paint0_linear_1820_39" x1="95" y1="25.8049" x2="654" y2="25.8049" gradientUnits="userSpaceOnUse">
<stop stop-color="#92FE9D"/>
<stop offset="1" stop-color="#00C9FF"/>
</linearGradient>
<linearGradient id="paint1_linear_1820_39" x1="377" y1="50" x2="377" y2="425" gradientUnits="userSpaceOnUse">
<stop stop-color="#040C20"/>
<stop offset="1" stop-color="#061536"/>
</linearGradient>
<linearGradient id="paint2_linear_1820_39" x1="2" y1="235.976" x2="752" y2="235.976" gradientUnits="userSpaceOnUse">
<stop stop-color="#92FE9D"/>
<stop offset="1" stop-color="#00C9FF"/>
</linearGradient>
</defs>
</svg>
